<svg id="b0c91092-46c2-4f2b-b83b-f2c3d31d7f00" xmlns="http://www.w3.org/2000/svg" width="56" height="56" viewBox="0 0 56 56">
  <defs>
    <style>
      .cls-1 {
        fill: #5db6dd;
      }
    </style>
  </defs>
  <path class="cls-1" d="M23.47,9.11V46.89h3.39V39.54h7.9v7.35H47.82V9.11Zm6.88,26.56H26.67V32h3.68Zm0-6.13H26.67V25.86h3.68Zm0-6.13H26.67V19.74h3.68Zm0-6.13H26.67V13.61h3.68Zm7,18.39H33.73V32h3.68Zm0-6.13H33.73V25.86h3.68Zm0-6.13H33.73V19.74h3.68Zm0-6.13H33.73V13.61h3.68Zm7,18.39H40.77V32h3.68Zm0-6.13H40.77V25.86h3.68Zm0-6.13H40.77V19.74h3.68Zm0-6.13H40.77V13.61h3.68Z"/>
  <path class="cls-1" d="M8.18,24.18V46.89H21.9V24.18Zm4,16.86H10V38.82h2.23Zm0-4.24H10V34.58h2.23Zm0-4.24H10V30.34h2.23Zm0-4.24H10V26.11h2.23Zm4,12.72H13.93V38.82h2.25Zm0-4.24H13.93V34.58h2.25Zm0-4.24H13.93V30.34h2.25Zm0-4.24H13.93V26.11h2.25Zm4,12.72H17.92V38.82h2.26Zm0-4.24H17.92V34.58h2.26Zm0-4.24H17.92V30.34h2.26Zm0-4.24H17.92V26.11h2.26Z"/>
</svg>
