<svg id="グループ_173" data-name="グループ 173" xmlns="http://www.w3.org/2000/svg" width="56" height="56" viewBox="0 0 56 56">
  <rect id="長方形_176" data-name="長方形 176" width="56" height="56" transform="translate(0 0)" fill="#ea694b" opacity="0"/>
  <path id="パス_122" data-name="パス 122" d="M-184.158,44.764-210.4,43.693l3.685,16.461,22.561-2.111a1.084,1.084,0,0,0,1.081-1.08V45.844A1.084,1.084,0,0,0-184.158,44.764Z" transform="translate(225.186 -27.381)" fill="#ea694b"/>
  <path id="パス_123" data-name="パス 123" d="M-199.8,56.492h-19.385a3.311,3.311,0,0,1-3.174-2.4c-.006-.023-.012-.046-.017-.069L-227.332,31.9c-1.015.016-2.641-.007-5.329-.046a1.307,1.307,0,0,1-1.288-1.325,1.307,1.307,0,0,1,1.306-1.288h.019c2.611.037,5.533.055,6.087.022a1.3,1.3,0,0,1,.606.029,1.307,1.307,0,0,1,.911.97l5.181,23.145a.688.688,0,0,0,.651.474H-199.8a1.307,1.307,0,0,1,1.307,1.307A1.307,1.307,0,0,1-199.8,56.492ZM-227.218,29.62h0Zm0,0h0Zm0,0h0Z" transform="translate(239.941 -18.323)" fill="#ea694b"/>
  <path id="パス_124" data-name="パス 124" d="M-196.986,96.856" transform="translate(216.778 -60.696)" fill="#ea694b" stroke="#eb6100" stroke-miterlimit="10" stroke-width="6"/>
  <path id="パス_125" data-name="パス 125" d="M-205.427,112.251" transform="translate(222.068 -70.344)" fill="#ea694b" stroke="#eb6100" stroke-miterlimit="10" stroke-width="6"/>
  <path id="パス_126" data-name="パス 126" d="M-148.041,112.251" transform="translate(186.106 -70.344)" fill="#ea694b" stroke="#eb6100" stroke-miterlimit="10" stroke-width="6"/>
  <circle id="楕円形_75" data-name="楕円形 75" cx="2.684" cy="2.684" r="2.684" transform="translate(16.589 38.834)" fill="#ea694b"/>
  <circle id="楕円形_76" data-name="楕円形 76" cx="2.684" cy="2.684" r="2.684" transform="translate(38.106 38.834)" fill="#ea694b"/>
</svg>
