<svg id="グループ_179" data-name="グループ 179" xmlns="http://www.w3.org/2000/svg" width="56" height="56" viewBox="0 0 56 56">
  <rect id="長方形_182" data-name="長方形 182" width="56" height="56" transform="translate(0 0)" fill="#e55f98" opacity="0"/>
  <path id="パス_134" data-name="パス 134" d="M64.973,299.387A5.98,5.98,0,0,1,59,293.414V280.72a5.973,5.973,0,0,1,11.947,0v12.693A5.98,5.98,0,0,1,64.973,299.387Z" transform="translate(-36.973 -265.508)" fill="#e55f98"/>
  <rect id="長方形_189" data-name="長方形 189" width="2.613" height="5.992" transform="translate(26.693 38.722)" fill="#e55f98"/>
  <path id="パス_135" data-name="パス 135" d="M68.753,368.882H56.807a1.307,1.307,0,0,1,0-2.613H68.753a1.307,1.307,0,0,1,0,2.613Z" transform="translate(-34.78 -322.862)" fill="#e55f98"/>
  <path id="パス_136" data-name="パス 136" d="M55.26,325.277c-6.265,0-11.76-5.146-11.76-11.013v-6.71a1.307,1.307,0,0,1,2.613,0v6.71c0,4.475,4.274,8.4,9.147,8.4s9.147-3.925,9.147-8.4v-6.71a1.307,1.307,0,0,1,2.613,0v6.71C67.02,320.13,61.525,325.277,55.26,325.277Z" transform="translate(-27.26 -285.248)" fill="#e55f98"/>
  <path id="パス_137" data-name="パス 137" d="M103,309.747" transform="translate(-64.547 -287.441)" fill="#e55f98" stroke="#e84d8f" stroke-linecap="round" stroke-miterlimit="10" stroke-width="6"/>
  <path id="パス_138" data-name="パス 138" d="M47,309.747" transform="translate(-29.453 -287.441)" fill="#e55f98" stroke="#e84d8f" stroke-linecap="round" stroke-miterlimit="10" stroke-width="6"/>
</svg>
