<svg id="コンポーネント_14_1" data-name="コンポーネント 14 – 1" xmlns="http://www.w3.org/2000/svg" width="56" height="56" viewBox="0 0 56 56">
  <g id="レイヤー_3" data-name="レイヤー 3">
    <rect id="長方形_340" data-name="長方形 340" width="56" height="56" fill="#9553aa" opacity="0"/>
  </g>
  <g id="レイヤー_1" data-name="レイヤー 1" transform="translate(11.519 17.091)">
    <path id="パス_219" data-name="パス 219" d="M311.95,45.78H282.722a1.872,1.872,0,0,0-1.867,1.867V65.731a1.872,1.872,0,0,0,1.867,1.867H311.95a1.872,1.872,0,0,0,1.867-1.867V47.647A1.872,1.872,0,0,0,311.95,45.78ZM301.5,56.6c-.091,0-.18,0-.268-.013a4.164,4.164,0,1,1-7.791,0c-.088.009-.178.013-.268.013a2.717,2.717,0,1,1,2.717-2.717c0,.09,0,.18-.013.268a4.105,4.105,0,0,1,2.92,0c-.009-.088-.013-.178-.013-.268A2.717,2.717,0,1,1,301.5,56.6Z" transform="translate(-280.855 -45.78)" fill="#9553aa"/>
  </g>
</svg>
