<svg xmlns="http://www.w3.org/2000/svg" width="56" height="56" viewBox="0 0 56 56">
  <g id="グループ_219" data-name="グループ 219" transform="translate(3397 22)">
    <g id="グループ_209" data-name="グループ 209" transform="translate(-3397 -22)">
      <g id="レイヤー_3" data-name="レイヤー 3">
        <rect id="長方形_256" data-name="長方形 256" width="56" height="56" fill="#1865be" opacity="0"/>
      </g>
      <g id="レイヤー_1" data-name="レイヤー 1" transform="translate(9.966 9.243)">
        <path id="パス_181" data-name="パス 181" d="M44.324,24.932,26.851,43.248a.56.56,0,0,0,.405.946H62.2a.56.56,0,0,0,.405-.946L45.134,24.932A.56.56,0,0,0,44.324,24.932Z" transform="translate(-26.695 -24.759)" fill="#1865be"/>
        <path id="パス_182" data-name="パス 182" d="M64.3,65.452H41.991a1.867,1.867,0,0,0-1.867,1.867V85.63A1.867,1.867,0,0,0,41.991,87.5H64.3a1.867,1.867,0,0,0,1.867-1.867V67.319A1.867,1.867,0,0,0,64.3,65.452ZM51.962,81.481a.644.644,0,0,1-.644.644H47.777a.644.644,0,0,1-.644-.644V77.941a.644.644,0,0,1,.644-.644h3.541a.644.644,0,0,1,.644.644Zm0-6.57a.644.644,0,0,1-.644.644H47.777a.644.644,0,0,1-.644-.644V71.37a.644.644,0,0,1,.644-.644h3.541a.644.644,0,0,1,.644.644Zm7.193,6.57a.644.644,0,0,1-.644.644H54.97a.644.644,0,0,1-.644-.644V77.941a.644.644,0,0,1,.644-.644h3.541a.644.644,0,0,1,.644.644Zm0-6.57a.644.644,0,0,1-.644.644H54.97a.644.644,0,0,1-.644-.644V71.37a.644.644,0,0,1,.644-.644h3.541a.644.644,0,0,1,.644.644Z" transform="translate(-35.111 -50.26)" fill="#1865be"/>
      </g>
    </g>
  </g>
</svg>
