<svg id="コンポーネント_13_1" data-name="コンポーネント 13 – 1" xmlns="http://www.w3.org/2000/svg" width="56" height="56" viewBox="0 0 56 56">
  <g id="レイヤー_3" data-name="レイヤー 3">
    <rect id="長方形_294" data-name="長方形 294" width="56" height="56" fill="#3b52af" opacity="0"/>
  </g>
  <g id="レイヤー_1" data-name="レイヤー 1" transform="translate(11.141 7.967)">
    <path id="パス_204" data-name="パス 204" d="M60.117,44.836V42.577l1.592-.852a.222.222,0,0,0,0-.4l-1.877-1a.266.266,0,0,0-.248,0,.228.228,0,0,0-.124.2v4.314l-1.422,2.87V45.771l.021.032.467-.371V44.375l-2.672-5.391V36.651l1.592-.852a.222.222,0,0,0,0-.4l-1.877-1a.263.263,0,0,0-.248,0,.227.227,0,0,0-.124.2v4.389l-1.783,3.6V33.037h.01l.634-.586v-1.11l-2.727-6.208V23.294H53.48l-.827-.977.827-.977h-2.81v3.793l-2.727,6.208v1.11l.643.586V39.17l-1.928-3.342H43.4L39.67,42.3v1.057l.452.36v2.623h-.289l-2.2-3.76V40.519l1.592-.852a.222.222,0,0,0,0-.4l-1.877-1a.266.266,0,0,0-.248,0,.227.227,0,0,0-.124.2v3.807L34.6,46.342V47.4l.467.371v1.955H33.592l-1.135-2.38V45.389l1.591-.852a.222.222,0,0,0,0-.4l-1.877-1a.266.266,0,0,0-.248,0,.228.228,0,0,0-.124.2V46.72l-1.957,4.1v1.057l.467.371.016-.025V59.78H42.416V55.824a2.616,2.616,0,1,1,5.23,0V59.78H62.322V51.655l.467-.371V50.227ZM45.031,49.371a1.233,1.233,0,1,1,1.233-1.233A1.233,1.233,0,0,1,45.031,49.371Z" transform="translate(-29.842 -21.34)" fill="#3b52af"/>
  </g>
</svg>
