<svg id="グループ_174" data-name="グループ 174" xmlns="http://www.w3.org/2000/svg" width="56" height="56" viewBox="0 0 56 56">
  <rect id="長方形_181" data-name="長方形 181" width="56" height="56" transform="translate(0 0)" fill="#55B9A6" opacity="0"/>
  <path id="パス_127" data-name="パス 127" d="M-187.982,292.028a2.241,2.241,0,0,1-2.077-1.4,13.36,13.36,0,0,0-12.18-8.714,13.36,13.36,0,0,0-12.18,8.714,2.24,2.24,0,0,1-2.917,1.236,2.24,2.24,0,0,1-1.236-2.917,17.815,17.815,0,0,1,16.333-11.513,17.816,17.816,0,0,1,16.333,11.513,2.24,2.24,0,0,1-1.236,2.917A2.232,2.232,0,0,1-187.982,292.028Z" transform="translate(230.408 -267.192)" fill="#55B9A6"/>
  <path id="パス_128" data-name="パス 128" d="M-135.621,319.991h-2.053c0-.452-.006-3.8-.015-4.048a16.961,16.961,0,0,0-1.223-5.681l1.9-.77a19.018,19.018,0,0,1,1.371,6.367C-135.625,316.156-135.621,319.953-135.621,319.991Z" transform="translate(180.385 -287.282)" fill="#55B9A6"/>
  <path id="パス_129" data-name="パス 129" d="M-216.947,319.991H-219c0-.038.006-3.942.024-4.3a19.027,19.027,0,0,1,1.363-6.2l1.9.77a16.956,16.956,0,0,0-1.216,5.528C-216.937,316.062-216.947,319.392-216.947,319.991Z" transform="translate(230.573 -287.282)" fill="#55B9A6"/>
  <path id="パス_130" data-name="パス 130" d="M-149,345.61l-4.881-2.842a1.336,1.336,0,0,1-.8-1.708l3.42-8.719a1.336,1.336,0,0,1,1.707-.8l5.337.925a1.336,1.336,0,0,1,.8,1.708l-3.876,10.636A1.335,1.335,0,0,1-149,345.61Z" transform="translate(190.315 -301.052)" fill="#55B9A6"/>
  <path id="パス_131" data-name="パス 131" d="M-220.168,345.61l4.881-2.842a1.336,1.336,0,0,0,.8-1.708l-3.421-8.719a1.336,1.336,0,0,0-1.707-.8l-5.337.925a1.336,1.336,0,0,0-.8,1.708l3.876,10.636A1.336,1.336,0,0,0-220.168,345.61Z" transform="translate(234.855 -301.052)" fill="#55B9A6"/>
</svg>
