<svg id="コンポーネント_15_1" data-name="コンポーネント 15 – 1" xmlns="http://www.w3.org/2000/svg" width="56" height="56" viewBox="0 0 56 56">
  <g id="グループ_246" data-name="グループ 246">
    <g id="レイヤー_3" data-name="レイヤー 3">
      <rect id="長方形_295" data-name="長方形 295" width="56" height="56" fill="#ef6949" opacity="0"/>
    </g>
    <g id="レイヤー_1" data-name="レイヤー 1" transform="translate(7.843 14.457)">
      <rect id="長方形_296" data-name="長方形 296" width="2.986" height="12.143" rx="1.493" transform="matrix(0.985, 0.174, -0.174, 0.985, 7.683, 15.962)" fill="#ef6949"/>
      <rect id="長方形_297" data-name="長方形 297" width="2.986" height="12.143" rx="1.493" transform="translate(16.708 27.92) rotate(170)" fill="#ef6949"/>
      <rect id="長方形_298" data-name="長方形 298" width="2.986" height="12.143" rx="1.493" transform="matrix(0.707, -0.707, 0.707, 0.707, 0, 2.791)" fill="#ef6949"/>
      <rect id="長方形_299" data-name="長方形 299" width="2.986" height="12.143" rx="1.493" transform="translate(13.68 11.378) rotate(-135)" fill="#ef6949"/>
      <rect id="長方形_300" data-name="長方形 300" width="7.267" height="10.919" rx="3" transform="translate(7.502 8.169)" fill="#ef6949"/>
      <circle id="楕円形_77" data-name="楕円形 77" cx="3.003" cy="3.003" r="3.003" transform="translate(8.133)" fill="#ef6949"/>
      <g id="グループ_242" data-name="グループ 242" transform="translate(7.783 6.644)">
        <g id="グループ_240" data-name="グループ 240" transform="translate(3.353)">
          <path id="パス_205" data-name="パス 205" d="M53.891,56.52a3.843,3.843,0,0,1-3.055,1.525l.817.507,2.535-.031Z" transform="translate(-50.836 -56.52)" fill="#ef6949"/>
        </g>
        <g id="グループ_241" data-name="グループ 241">
          <path id="パス_206" data-name="パス 206" d="M42.154,56.52a3.844,3.844,0,0,0,3.055,1.525l-.817.507-2.535-.031Z" transform="translate(-41.856 -56.52)" fill="#ef6949"/>
        </g>
      </g>
      <path id="パス_207" data-name="パス 207" d="M40.679,81.067a12.937,12.937,0,0,1-.23,2.485c-.2,1.138.957,1.084.957,1.084l.164-3.109Z" transform="translate(-33.177 -65.259)" fill="#ef6949"/>
      <path id="パス_208" data-name="パス 208" d="M59.073,81.067a12.937,12.937,0,0,0,.23,2.485c.2,1.138-.957,1.084-.957,1.084l-.164-3.109Z" transform="translate(-44.305 -65.259)" fill="#ef6949"/>
      <path id="パス_209" data-name="パス 209" d="M46.969,87.661s-.04.038-.093.1c-.054-.058-.094-.1-.094-.1s-2.275.166-2.275.2,1.175,1.852,1.175,1.852c.143-.811.414-1.225,1.194-1.225s1.051.414,1.194,1.225c0,0,1.175-1.821,1.175-1.852S46.969,87.661,46.969,87.661Z" transform="translate(-35.734 -69.391)" fill="#ef6949"/>
      <rect id="長方形_301" data-name="長方形 301" width="2.986" height="12.143" rx="1.493" transform="matrix(0.985, 0.174, -0.174, 0.985, 25.722, 15.962)" fill="#ef6949"/>
      <rect id="長方形_302" data-name="長方形 302" width="2.986" height="12.143" rx="1.493" transform="translate(34.747 27.92) rotate(170)" fill="#ef6949"/>
      <rect id="長方形_303" data-name="長方形 303" width="2.986" height="12.143" rx="1.493" transform="matrix(0.707, -0.707, 0.707, 0.707, 18.039, 2.791)" fill="#ef6949"/>
      <rect id="長方形_304" data-name="長方形 304" width="2.986" height="12.143" rx="1.493" transform="translate(31.719 11.378) rotate(-135)" fill="#ef6949"/>
      <rect id="長方形_305" data-name="長方形 305" width="7.267" height="10.919" rx="3" transform="translate(25.541 8.169)" fill="#ef6949"/>
      <circle id="楕円形_78" data-name="楕円形 78" cx="3.003" cy="3.003" r="3.003" transform="translate(26.172)" fill="#ef6949"/>
      <g id="グループ_245" data-name="グループ 245" transform="translate(25.822 6.644)">
        <g id="グループ_243" data-name="グループ 243" transform="translate(3.353)">
          <path id="パス_210" data-name="パス 210" d="M102.21,56.52a3.843,3.843,0,0,1-3.055,1.525l.817.507,2.535-.031Z" transform="translate(-99.155 -56.52)" fill="#ef6949"/>
        </g>
        <g id="グループ_244" data-name="グループ 244">
          <path id="パス_211" data-name="パス 211" d="M90.472,56.52a3.843,3.843,0,0,0,3.055,1.525l-.818.507-2.535-.031Z" transform="translate(-90.174 -56.52)" fill="#ef6949"/>
        </g>
      </g>
      <path id="パス_212" data-name="パス 212" d="M89,81.067a12.967,12.967,0,0,1-.23,2.485c-.2,1.138.956,1.084.956,1.084l.164-3.109Z" transform="translate(-63.456 -65.259)" fill="#ef6949"/>
      <path id="パス_213" data-name="パス 213" d="M107.391,81.067a12.967,12.967,0,0,0,.23,2.485c.2,1.138-.956,1.084-.956,1.084l-.164-3.109Z" transform="translate(-74.584 -65.259)" fill="#ef6949"/>
      <path id="パス_214" data-name="パス 214" d="M95.287,87.661s-.04.038-.094.1c-.054-.058-.093-.1-.093-.1s-2.276.166-2.276.2S94,89.71,94,89.71c.143-.811.415-1.225,1.194-1.225s1.051.414,1.194,1.225c0,0,1.175-1.821,1.175-1.852S95.287,87.661,95.287,87.661Z" transform="translate(-66.013 -69.391)" fill="#ef6949"/>
    </g>
  </g>
</svg>
