<svg id="グループ_180" data-name="グループ 180" xmlns="http://www.w3.org/2000/svg" width="56" height="56" viewBox="0 0 56 56">
  <rect id="長方形_183" data-name="長方形 183" width="56" height="56" transform="translate(0 0)" fill="#E88716" opacity="0"/>
  <g id="グループ_131" data-name="グループ 131" transform="translate(8.572 17.39)">
    <g id="グループ_130" data-name="グループ 130" transform="translate(0)">
      <path id="パス_144" data-name="パス 144" d="M311.159,313.163c-1.293-3.867-3.186-8.7-4.349-11.881s-3.878-4.7-7.169-4.7H285.065c-3.291,0-6.006,1.523-7.169,4.7s-3.056,8.014-4.349,11.881c-.642,1.919-1.075,5.572.47,6.806,1.568,1.253,3.767,1.124,6.464-.7l6.927-4.871H297.3l6.927,4.871c2.7,1.829,4.9,1.958,6.464.7C312.234,318.735,311.8,315.083,311.159,313.163Zm-22.051-6.505a.374.374,0,0,1-.373.373h-3.021v3.022a.374.374,0,0,1-.373.373h-1.12a.375.375,0,0,1-.373-.373v-3.022h-3.021a.374.374,0,0,1-.373-.373v-1.12a.374.374,0,0,1,.373-.373h3.021v-3.021a.374.374,0,0,1,.373-.373h1.12a.374.374,0,0,1,.373.373v3.021h3.021a.374.374,0,0,1,.373.373Zm7.742.356a1.293,1.293,0,1,1,0-1.829A1.3,1.3,0,0,1,296.85,307.014Zm3.1,3.1a1.293,1.293,0,1,1,0-1.829A1.3,1.3,0,0,1,299.952,310.117Zm0-6.208a1.293,1.293,0,1,1,0-1.829A1.3,1.3,0,0,1,299.955,303.908Zm3.1,3.1a1.293,1.293,0,1,1,0-1.829A1.3,1.3,0,0,1,303.058,307.011Z" transform="translate(-272.962 -296.581)" fill="#E88716"/>
    </g>
  </g>
</svg>
