<svg id="グループ_177" data-name="グループ 177" xmlns="http://www.w3.org/2000/svg" width="56" height="56" viewBox="0 0 56 56">
  <rect id="長方形_178" data-name="長方形 178" width="56" height="56" transform="translate(0 0)" fill="#e3b944" opacity="0"/>
  <path id="パス_121" data-name="パス 121" d="M310.808,40.9H277.955a1.867,1.867,0,0,0-1.867,1.867V61.429a1.867,1.867,0,0,0,1.867,1.867h32.853a1.867,1.867,0,0,0,1.867-1.867V42.763A1.867,1.867,0,0,0,310.808,40.9Zm-1.472,18.556a.374.374,0,0,1-.373.373h-29.2a.374.374,0,0,1-.373-.373V44.688a.374.374,0,0,1,.373-.373h29.2a.374.374,0,0,1,.373.373Z" transform="translate(-266.348 -25.628)" fill="#e3b944"/>
  <path id="パス_132" data-name="パス 132" d="M317.1,112H300.008a1.307,1.307,0,0,1,0-2.613H317.1a1.307,1.307,0,1,1,0,2.613Z" transform="translate(-280.519 -68.549)" fill="#e3b944"/>
  <rect id="長方形_190" data-name="長方形 190" width="7.69" height="5.197" transform="translate(24.188 36.947)" fill="#e3b944"/>
</svg>
